<svg width="465" height="125" viewBox="0 0 465 125" fill="none" xmlns="http://www.w3.org/2000/svg">
<g clip-path="url(#clip0_115_131)">
<path d="M116.214 22.004V32.975L99.3369 39.1743L116.214 45.5951V56.5713L99.3369 62.7705L116.214 69.1914V80.1624L99.3369 86.3617L116.214 92.7877V103.759L58.3829 125L0 104.681V92.7877L16.1419 86.7018L0 81.0848V69.1914L16.1419 63.1106L0 57.4886V45.5951L16.1419 39.5144L0 33.8974V22.004L58.3829 0L116.214 22.004Z" fill="white"/>
<path d="M133.335 26.7964L143.297 41.2252L153.265 26.7964H159.471L146.319 45.3477L159.069 63.3838H152.864L143.287 49.4393L133.731 63.3528H127.479L140.275 45.3168L127.067 26.7964H133.335Z" fill="black"/>
<path d="M188.196 58.2667V63.3838H163.535V26.7964H187.711V31.9083H169.198V42.2558H185.226V47.0483H169.198V58.2461L188.196 58.2667Z" fill="black"/>
<path d="M199.7 37.5871V63.3528H194.016V26.7964H198.465L219.021 53.1805V26.8222H224.752V63.3528H220.063L199.7 37.5871Z" fill="black"/>
<path d="M247.751 63.6105C245.325 63.648 242.923 63.1183 240.743 62.0645C238.671 61.0404 236.825 59.622 235.309 57.8904C233.776 56.1383 232.585 54.1202 231.797 51.9386C230.976 49.7446 230.554 47.4242 230.551 45.0849C230.542 42.6798 230.987 40.2941 231.864 38.0508C232.714 35.8765 233.949 33.8696 235.512 32.1247C237.041 30.4168 238.899 29.0275 240.977 28.0382C243.126 27.0045 245.487 26.4755 247.876 26.4923C250.32 26.4599 252.735 27.0189 254.91 28.1207C256.98 29.1725 258.819 30.6171 260.324 32.372C262.602 35.075 264.117 38.3257 264.716 41.7945C265.314 45.2633 264.975 48.8269 263.731 52.1241C262.912 54.2981 261.685 56.2998 260.115 58.0244C258.572 59.7292 256.706 61.1192 254.624 62.116C252.48 63.1325 250.128 63.644 247.751 63.6105ZM236.319 45.0591C236.315 46.7578 236.59 48.4459 237.132 50.0577C237.634 51.6077 238.412 53.0563 239.43 54.3348C240.421 55.5652 241.664 56.5749 243.077 57.2978C244.542 58.0508 246.173 58.4315 247.824 58.4058C249.51 58.4413 251.177 58.0417 252.659 57.2463C254.052 56.4703 255.267 55.4176 256.228 54.1544C257.213 52.8662 257.964 51.4191 258.448 49.8773C258.953 48.3111 259.209 46.6771 259.209 45.0333C259.218 43.3258 258.944 41.6283 258.396 40.009C257.893 38.4754 257.114 37.0441 256.098 35.7834C255.115 34.572 253.891 33.5724 252.503 32.8461C251.059 32.0914 249.446 31.7103 247.814 31.7382C246.123 31.7087 244.453 32.1078 242.963 32.8977C241.562 33.6501 240.33 34.6757 239.341 35.9123C238.335 37.1954 237.568 38.6454 237.075 40.1945C236.567 41.7669 236.312 43.4085 236.319 45.0591Z" fill="black"/>
<path d="M276.533 37.5871V63.3528H270.849V26.7964H275.298L295.854 53.1805V26.8222H301.585V63.3528H296.896L276.533 37.5871Z" fill="black"/>
<path d="M330.91 35.3712C330.47 34.9115 329.977 34.505 329.44 34.1603C328.735 33.6938 327.991 33.2886 327.215 32.9493C326.303 32.555 325.356 32.2462 324.386 32.0268C323.348 31.784 322.285 31.6613 321.218 31.661C318.828 31.661 317.067 32.1076 315.935 33.0008C315.377 33.4435 314.933 34.0104 314.638 34.6551C314.344 35.2999 314.208 36.0044 314.241 36.7111C314.206 37.4748 314.387 38.233 314.762 38.9012C315.189 39.5212 315.763 40.0275 316.435 40.375C317.312 40.8603 318.244 41.2409 319.212 41.5086C320.327 41.8488 321.625 42.2043 323.11 42.5393C324.781 42.9412 326.427 43.4402 328.039 44.0337C329.376 44.5094 330.631 45.1874 331.759 46.0434C332.759 46.8214 333.563 47.818 334.109 48.955C334.703 50.2751 334.989 51.7104 334.948 53.1548C334.993 54.8117 334.636 56.4552 333.906 57.9472C333.248 59.2506 332.276 60.3743 331.076 61.2195C329.817 62.0915 328.403 62.7209 326.908 63.0746C325.237 63.4798 323.522 63.6788 321.802 63.6672C319.1 63.6865 316.414 63.267 313.851 62.4253C311.355 61.6106 309.024 60.3687 306.962 58.7562L309.568 53.8092C310.146 54.3706 310.782 54.8713 311.464 55.3036C312.375 55.9083 313.341 56.4259 314.351 56.8496C315.507 57.3291 316.696 57.7252 317.91 58.0348C319.215 58.3704 320.557 58.5435 321.906 58.5501C324.136 58.5501 325.861 58.155 327.08 57.3649C327.67 56.992 328.149 56.4713 328.469 55.8558C328.789 55.2404 328.939 54.552 328.904 53.8607C328.935 53.0352 328.695 52.2219 328.221 51.5418C327.706 50.8486 327.042 50.2766 326.277 49.8671C325.28 49.3452 324.233 48.9223 323.151 48.6045C321.932 48.2301 320.553 47.835 319.014 47.4193C317.421 46.9977 315.855 46.4815 314.325 45.8734C313.117 45.4201 311.997 44.7666 311.011 43.9409C310.143 43.2241 309.449 42.3244 308.979 41.3077C308.498 40.1376 308.27 38.8805 308.312 37.618C308.29 35.9716 308.646 34.3417 309.354 32.8514C310.003 31.5067 310.942 30.3193 312.105 29.373C313.329 28.3994 314.735 27.6728 316.242 27.2344C317.919 26.7402 319.661 26.497 321.411 26.513C323.706 26.4921 325.986 26.8941 328.132 27.6982C330.067 28.4228 331.889 29.4115 333.546 30.6355L330.91 35.3712Z" fill="black"/>
<path d="M366.668 31.8671H354.731V63.3528H349.042V31.8671H337.058V26.7551H366.695L366.668 31.8671Z" fill="black"/>
<path d="M378.507 26.7964H383.488L397.65 63.3838H391.658L387.865 53.4382H374.005L370.259 63.3838H364.241L378.507 26.7964ZM386.776 49.1559L380.982 33.4388L375.016 49.1559H386.776Z" fill="black"/>
<path d="M398.489 44.8016C398.49 42.5625 398.88 40.3402 399.64 38.2313C400.397 36.0794 401.554 34.0867 403.053 32.3567C404.577 30.6051 406.443 29.1765 408.54 28.1569C410.828 27.0635 413.345 26.5198 415.886 26.5697C418.846 26.4864 421.766 27.2563 424.291 28.7856C426.543 30.1838 428.361 32.1705 429.543 34.5262L425.088 37.6181C424.638 36.5992 424.024 35.6594 423.27 34.8354C422.603 34.1098 421.817 33.5001 420.946 33.0318C420.126 32.5968 419.249 32.276 418.341 32.0784C417.475 31.8968 416.594 31.8018 415.709 31.795C413.983 31.7575 412.276 32.1566 410.749 32.9545C409.35 33.72 408.135 34.7745 407.185 36.0464C406.213 37.3354 405.478 38.783 405.012 40.3235C404.529 41.8586 404.281 43.4566 404.278 45.0644C404.268 46.8043 404.559 48.5331 405.137 50.1763C405.674 51.7323 406.487 53.1808 407.539 54.4534C408.542 55.6733 409.782 56.6811 411.187 57.4165C412.622 58.1582 414.22 58.5387 415.84 58.5244C416.751 58.5191 417.659 58.4066 418.544 58.1894C419.487 57.96 420.391 57.5954 421.227 57.1073C422.106 56.5953 422.906 55.962 423.603 55.2264C424.358 54.4262 424.967 53.502 425.401 52.4952L430.09 55.2264C429.522 56.573 428.696 57.798 427.657 58.8336C426.613 59.8819 425.421 60.7758 424.119 61.4875C422.805 62.2074 421.404 62.7614 419.951 63.1365C418.539 63.5075 417.086 63.698 415.626 63.7033C413.214 63.7288 410.833 63.1622 408.696 62.0543C406.633 60.971 404.798 59.5089 403.288 57.7463C401.759 55.9561 400.561 53.9134 399.75 51.7119C398.911 49.5027 398.484 47.1614 398.489 44.8016Z" fill="black"/>
<path d="M435.358 63.3528V26.8222H441.043V45.626L457.94 26.7964H464.192L450.031 42.9309L465.021 63.3374H458.68L446.534 46.5072L441.022 52.3303V63.3838L435.358 63.3528Z" fill="black"/>
<path opacity="0.8" d="M0 92.7876L58.3829 70.7837L116.214 92.7876L58.3829 113.478L0 92.7876Z" fill="#50B748"/>
<path d="M15.1519 98.1521L58.3829 81.291L104.261 97.0545L116.214 92.7876L58.3829 70.7837L0 92.7876L15.1519 98.1521Z" fill="#2DB24A"/>
<path opacity="0.55" d="M0 92.7876V104.681L58.3829 125L116.214 103.759V92.7876L58.3829 113.478L0 92.7876Z" fill="#7DC257"/>
<path opacity="0.8" d="M0 69.1913L58.3829 47.1874L116.214 69.1913L58.3829 89.8812L0 69.1913Z" fill="#FFCB04"/>
<path d="M15.1519 74.5558L58.3829 57.6998L104.261 73.4633L116.214 69.1913L58.3829 47.1874L0 69.1913L15.1519 74.5558Z" fill="#FDBC11"/>
<path opacity="0.55" d="M0 69.1914V81.0849L58.3829 101.404L116.214 80.1625V69.1914L58.3829 89.8813L0 69.1914Z" fill="#FFD451"/>
<path opacity="0.8" d="M0 45.5951L58.3829 23.5963L116.214 45.5951L58.3829 66.285L0 45.5951Z" fill="#4C9AFF"/>
<path d="M15.1519 50.9595L58.3829 34.1036L104.261 49.8671L116.214 45.5951L58.3829 23.5963L0 45.5951L15.1519 50.9595Z" fill="#4C9AFF"/>
<path opacity="0.55" d="M0 45.5951V57.4886L58.3829 77.8126L116.214 56.5713V45.5951L58.3829 66.285L0 45.5951Z" fill="#4C9AFF"/>
<path opacity="0.8" d="M0 22.004L58.3829 0L116.214 22.004L58.3829 42.6887L0 22.004Z" fill="#EE4526"/>
<path d="M15.1519 27.3684L58.3829 10.5073L104.261 26.2708L116.214 22.004L58.3829 0L0 22.004L15.1519 27.3684Z" fill="#EE4526"/>
<path opacity="0.55" d="M0 22.0039V33.8974L58.3829 54.2163L116.214 32.975V22.0039L58.3829 42.6887L0 22.0039Z" fill="#EE4526"/>
<path d="M156.422 73.6901H160.216L169.162 99.4558H165.603L161.002 85.027C160.059 82.1412 159.205 79.3173 158.361 76.3491H158.199C157.381 79.3328 156.532 82.1412 155.594 85.027L150.91 99.4558H147.492L156.422 73.6901ZM152.186 88.9795H164.347V91.5921H152.186V88.9795Z" fill="black"/>
<path d="M178.853 96.0599L180.864 93.8131C181.809 94.7925 182.939 95.5782 184.191 96.1255C185.443 96.6729 186.791 96.971 188.159 97.0029C191.624 97.0029 193.677 95.3127 193.677 92.8083C193.677 90.1802 191.765 89.3402 189.274 88.2838L185.491 86.6451C183.032 85.6145 180.14 83.8057 180.14 80.0181C180.14 76.0863 183.657 73.1851 188.477 73.1851C189.922 73.1836 191.353 73.4652 192.687 74.0135C194.021 74.5619 195.233 75.3662 196.251 76.38L194.474 78.4722C192.875 76.9168 190.72 76.0482 188.477 76.0554C185.517 76.0554 183.553 77.5137 183.553 79.8172C183.553 82.2958 185.861 83.2234 187.93 84.0788L191.697 85.666C194.756 86.944 197.137 88.7218 197.137 92.5506C197.137 96.6216 193.693 99.8681 188.138 99.8681C186.411 99.8878 184.697 99.5605 183.101 98.9059C181.505 98.2513 180.06 97.2831 178.853 96.0599Z" fill="black"/>
<path d="M201.555 93.5142V82.9657H198.648V80.5283L201.701 80.3376L202.097 74.9938H204.864V80.3376H210.168V82.9657H204.879V93.5709C204.879 95.895 205.651 97.2502 207.907 97.2502C208.673 97.2089 209.426 97.0345 210.132 96.7349L210.772 99.1724C209.601 99.5916 208.37 99.828 207.125 99.8732C202.967 99.899 201.555 97.3069 201.555 93.5142Z" fill="black"/>
<path d="M212.534 94.4573C212.534 90.3038 216.212 88.2271 224.549 87.3459C224.549 84.893 223.705 82.5277 220.511 82.5277C218.25 82.5277 216.207 83.5583 214.68 84.589L213.383 82.3783C215.181 81.2291 217.926 79.8842 221.068 79.8842C225.841 79.8842 227.842 82.976 227.842 87.7324V99.4558H225.106L224.83 97.1833H224.721C222.84 98.688 220.683 99.9299 218.25 99.9299C214.993 99.899 212.534 97.9099 212.534 94.4573ZM224.549 94.7562V89.4587C217.994 90.2317 215.78 91.7879 215.78 94.2357C215.78 96.4 217.286 97.2812 219.208 97.2812C221.131 97.2812 222.658 96.3794 224.549 94.7768V94.7562Z" fill="black"/>
<path d="M232.578 89.8967C232.578 83.5377 236.986 79.8635 241.999 79.8635C244.12 79.8621 246.162 80.6643 247.704 82.1052L246.011 84.2386C244.87 83.2388 243.656 82.5535 242.129 82.5535C238.586 82.5535 236.007 85.532 236.007 89.8967C236.007 94.2614 238.461 97.1936 242.056 97.1936C243.77 97.1316 245.403 96.4559 246.652 95.2921L248.084 97.4564C246.347 99.0028 244.096 99.8646 241.759 99.8784C236.554 99.899 232.578 96.2145 232.578 89.8967Z" fill="black"/>
<path d="M252.388 71.4587H255.634V90.3863H255.744L264.08 80.3376H267.728L261.178 88.0004L268.629 99.4558H265.008L259.302 90.2935L255.655 94.4521V99.4558H252.409L252.388 71.4587Z" fill="black"/>
<path d="M280.67 73.6901H284.031V99.4558H280.67V73.6901Z" fill="black"/>
<path d="M290.935 80.3377H293.671L293.957 83.0895H294.061C295.953 81.3013 297.938 79.8739 300.642 79.8739C304.769 79.8739 306.618 82.4505 306.618 87.3305V99.4559H303.325V87.7891C303.325 84.2335 302.221 82.7184 299.631 82.7184C297.63 82.7184 296.244 83.713 294.28 85.6454V99.4559H290.987L290.935 80.3377Z" fill="black"/>
<path d="M312.954 80.3376H315.69L315.966 83.0894H316.075C317.956 81.3013 319.952 79.8635 322.64 79.8635C326.762 79.8635 328.611 82.4401 328.611 87.3201V99.4558H325.313V87.7891C325.313 84.2334 324.209 82.7184 321.619 82.7184C319.623 82.7184 318.237 83.7129 316.273 85.6454V99.4558H312.975L312.954 80.3376Z" fill="black"/>
<path d="M333.515 89.8967C333.515 83.5377 337.787 79.8635 342.581 79.8635C347.374 79.8635 351.647 83.5377 351.647 89.8967C351.647 96.2557 347.38 99.899 342.581 99.899C337.782 99.899 333.515 96.2145 333.515 89.8967ZM348.224 89.8967C348.224 85.532 345.942 82.5535 342.576 82.5535C339.21 82.5535 336.922 85.532 336.922 89.8967C336.922 94.2614 339.204 97.1936 342.576 97.1936C345.947 97.1936 348.224 94.2666 348.224 89.8967Z" fill="black"/>
<path d="M353.789 80.3376H357.201L360.896 91.1593C361.479 93.0247 362.12 94.9623 362.704 96.7814H362.865C363.449 94.9623 364.084 93.0247 364.668 91.1593L368.367 80.3376H371.613L364.73 99.4558H360.88L353.789 80.3376Z" fill="black"/>
<path d="M373.4 94.4573C373.4 90.3039 377.079 88.2272 385.41 87.346C385.41 84.8931 384.572 82.5278 381.378 82.5278C379.116 82.5278 377.074 83.5584 375.547 84.589L374.25 82.3783C376.042 81.2086 378.798 79.8739 381.925 79.8739C386.703 79.8739 388.698 82.9658 388.698 87.7221V99.4559H385.989L385.713 97.1833H385.598C383.717 98.6881 381.56 99.93 379.127 99.93C375.854 99.899 373.4 97.9099 373.4 94.4573ZM385.41 94.7562V89.4588C378.861 90.2317 376.641 91.788 376.641 94.2357C376.641 96.4001 378.147 97.2812 380.07 97.2812C381.992 97.2812 383.519 96.3794 385.41 94.7768V94.7562Z" fill="black"/>
<path d="M394.909 93.5142V82.9657H392.002V80.5283L395.06 80.3376L395.462 74.9938H398.223V80.3376H403.522V82.9657H398.223V93.5709C398.223 95.895 398.994 97.2502 401.25 97.2502C402.017 97.2114 402.771 97.0369 403.475 96.7349L404.116 99.1724C402.945 99.5916 401.714 99.828 400.469 99.8732C396.321 99.899 394.909 97.3069 394.909 93.5142Z" fill="black"/>
<path d="M405.94 89.8967C405.94 83.5377 410.176 79.8687 414.98 79.8687C419.784 79.8687 424.051 83.5429 424.051 89.9018C424.051 96.2608 419.779 99.899 414.98 99.899C410.181 99.899 405.94 96.2144 405.94 89.8967ZM420.649 89.8967C420.649 85.532 418.367 82.5534 414.996 82.5534C411.624 82.5534 409.342 85.532 409.342 89.8967C409.342 94.2614 411.624 97.1935 414.996 97.1935C418.367 97.1935 420.628 94.2666 420.628 89.8967H420.649Z" fill="black"/>
<path d="M429.184 80.3377H431.945L432.226 83.8109H432.336C433.706 81.3941 435.702 79.8636 437.906 79.8636C438.622 79.8316 439.337 79.9676 439.99 80.2604L439.375 83.0895C438.769 82.8798 438.131 82.7735 437.489 82.7751C435.837 82.7751 433.842 83.9397 432.539 87.1656V99.4559H429.246L429.184 80.3377Z" fill="black"/>
</g>
<defs>
<clipPath id="clip0_115_131">
<rect width="465" height="125" fill="white"/>
</clipPath>
</defs>
</svg>
